<?xml version="1.0" encoding="UTF-8"?>
<svg width="167px" height="43px" viewBox="0 0 167 43" version="1.1" xmlns="http://www.w3.org/2000/svg" xmlns:xlink="http://www.w3.org/1999/xlink">
    <title>badges/applepodcasts-badge</title>
    <defs>
        <linearGradient x1="50%" y1="0%" x2="50%" y2="100%" id="linearGradient-1">
            <stop stop-color="#F452FF" offset="0%"></stop>
            <stop stop-color="#832BC1" offset="100%"></stop>
        </linearGradient>
    </defs>
    <g id="Page-1" stroke="none" stroke-width="1" fill="none" fill-rule="evenodd">
        <g id="badges/applepodcasts-badge" transform="translate(1.000000, 0.500000)">
            <g id="Group" fill="#FFFFFF" fill-rule="nonzero" stroke="#9AA0A6" stroke-width="0.5">
                <g id="Rectangle">
                    <rect x="0" y="0" width="165" height="42" rx="8"></rect>
                </g>
            </g>
            <g id="../icons/applepodcasts-icon" transform="translate(7.000000, 6.500000)">
                <path d="M27.44608,24.2687438 C27.1739047,24.9600922 26.5458765,25.9335214 25.6552426,26.6191948 C25.1410472,27.0152208 24.5271508,27.3937766 23.6839194,27.6435878 C22.7850512,27.9099789 21.6778788,28 20.2998665,28 L7.70002225,28 C6.32212119,28 5.21494881,27.9099789 4.31596935,27.6435878 C3.47273797,27.3937766 2.85895276,27.0152208 2.34464615,26.6191948 C1.45412348,25.9334102 0.825983977,24.9600922 0.553808737,24.2687438 C0.0055636803,22.8758097 0,21.2953781 0,20.3000278 L0,20.3000278 L0,7.69997218 L0,7.69997218 C0,6.70462187 0.0055636803,5.12419028 0.553808737,3.73125621 C0.825983977,3.0399078 1.45401221,2.06647856 2.34464615,1.38080515 C2.85884148,0.984779239 3.47273797,0.606223423 4.31596935,0.356412193 C5.21483754,0.0900210627 6.32200992,0 7.70002225,0 L7.70002225,0 L20.2999777,0 L20.2999777,0 C21.6778788,0 22.7850512,0.0900210627 23.6840306,0.356412193 C24.527262,0.606223423 25.1410472,0.984890514 25.6553539,1.38080515 C26.5458765,2.06658983 27.174016,3.0399078 27.4461913,3.73125621 C27.9944363,5.12419028 28,6.70462187 28,7.69997218 L28,20.3000278 C28,21.2952669 27.994325,22.8756984 27.44608,24.2687438 Z" id="XMLID_662_" fill="url(#linearGradient-1)"></path>
                <path d="M27.44608,24.2687438 C27.1739047,24.9600922 26.5458765,25.9335214 25.6552426,26.6191948 C25.1410472,27.0152208 24.5271508,27.3937766 23.6839194,27.6435878 C22.7850512,27.9099789 21.6778788,28 20.2998665,28 L7.70002225,28 C6.32212119,28 5.21494881,27.9099789 4.31596935,27.6435878 C3.47273797,27.3937766 2.85895276,27.0152208 2.34464615,26.6191948 C1.45412348,25.9334102 0.825983977,24.9600922 0.553808737,24.2687438 C0.0055636803,22.8758097 0,21.2953781 0,20.3000278 L0,20.3000278 L0,7.69997218 L0,7.69997218 C0,6.70462187 0.0055636803,5.12419028 0.553808737,3.73125621 C0.825983977,3.0399078 1.45401221,2.06647856 2.34464615,1.38080515 C2.85884148,0.984779239 3.47273797,0.606223423 4.31596935,0.356412193 C5.21483754,0.0900210627 6.32200992,0 7.70002225,0 L7.70002225,0 L20.2999777,0 L20.2999777,0 C21.6778788,0 22.7850512,0.0900210627 23.6840306,0.356412193 C24.527262,0.606223423 25.1410472,0.984890514 25.6553539,1.38080515 C26.5458765,2.06658983 27.174016,3.0399078 27.4461913,3.73125621 C27.9944363,5.12419028 28,6.70462187 28,7.69997218 L28,20.3000278 C28,21.2952669 27.994325,22.8756984 27.44608,24.2687438 Z" id="XMLID_660_"></path>
                <g id="XMLID_648_" transform="translate(4.280896, 4.227839)" fill="#FFFFFF" fill-rule="nonzero">
                    <path d="M11.8559926,12.8418109 C11.4364371,12.4035709 10.6995482,12.1226309 9.82965931,12.1226309 C8.95965931,12.1226309 8.22277042,12.4035709 7.80321486,12.8418109 C7.58432598,13.0705009 7.4685482,13.3049109 7.43210375,13.6388709 C7.36143709,14.2855609 7.40110375,14.8423809 7.47765931,15.7326109 C7.5505482,16.5809309 7.68899264,17.7121709 7.86965931,18.8643109 C7.99821486,19.6842509 8.10265931,20.1267809 8.19777042,20.4436909 C8.35199264,20.9572809 8.92832598,21.4064109 9.82965931,21.4064109 C10.7308815,21.4064109 11.3072149,20.9571709 11.4614371,20.4436909 C11.5565482,20.1267809 11.6609926,19.6842509 11.7895482,18.8643109 C11.9702149,17.7121709 12.1086593,16.5809309 12.1815482,15.7326109 C12.2581038,14.8422709 12.2977704,14.2854509 12.2271038,13.6388709 C12.1906593,13.3050209 12.0748815,13.0705009 11.8559926,12.8418109 Z M7.54365931,8.9397809 C7.54365931,10.1908109 8.56810375,11.2050109 9.83177042,11.2050109 C11.0955482,11.2050109 12.1199926,10.1908109 12.1199926,8.9397809 C12.1199926,7.6886409 11.0955482,6.6744409 9.83177042,6.6744409 C8.56810375,6.6744409 7.54365931,7.6886409 7.54365931,8.9397809 Z M9.80343709,4.03427948e-05 C4.45199264,0.0151508986 0.0669926417,4.3131809 0.00077041949,9.6107809 C-0.0530073583,13.9022109 2.71410375,17.5731309 6.57799264,18.9186509 C6.67177042,18.9513209 6.76699264,18.8742109 6.75221486,18.7768609 C6.7015482,18.4436709 6.65377042,18.1088309 6.60988153,17.7796009 C6.59432598,17.6632209 6.51943709,17.5629009 6.41088153,17.5159309 C3.35688153,16.1950509 1.22432598,13.1627909 1.2585482,9.6503809 C1.30343709,5.0409409 5.10543709,1.2831209 9.76143709,1.2458309 C14.521326,1.2077709 18.4058815,5.0300509 18.4058815,9.7336509 C18.4058815,13.2108609 16.2826593,16.2059409 13.2524371,17.5162609 C13.1438815,17.5632309 13.0694371,17.6638809 13.0539926,17.7801509 C13.0101038,18.1092709 12.962326,18.4440009 12.9117704,18.7768609 C12.8968815,18.8742109 12.9921038,18.9513209 13.0858815,18.9187609 C16.9128815,17.5861109 19.6638815,13.9722809 19.6638815,9.7337609 C19.6636593,4.3570709 15.2377704,-0.0153191014 9.80343709,4.03427948e-05 Z M9.62577042,4.4655309 C12.6594371,4.3492609 15.1647704,6.7587009 15.1647704,9.7366209 C15.1647704,11.2511009 14.5166593,12.6184009 13.4807704,13.5813409 C13.3928815,13.6629609 13.3456593,13.7789009 13.3524371,13.8980309 C13.3731038,14.2602609 13.3655482,14.6122609 13.3412149,15.0098009 C13.3346593,15.1157309 13.4546593,15.1833809 13.5432149,15.1236509 C15.280326,13.9484109 16.4228815,11.9722609 16.4228815,9.7366209 C16.4228815,6.0555809 13.3257704,3.0771109 9.57588153,3.2209909 C6.09099264,3.3547509 3.29510375,6.1992409 3.25043709,9.6517009 C3.22110375,11.9223209 4.37065931,13.9338909 6.13010375,15.1238709 C6.21843709,15.1836009 6.33810375,15.1158409 6.3315482,15.0100209 C6.30710375,14.6122609 6.29965931,14.2602609 6.32021486,13.8980309 C6.32699264,13.7790109 6.27988153,13.6630709 6.19221486,13.5815609 C5.12399264,12.5887009 4.46799264,11.1658509 4.50977042,9.5950509 C4.58332598,6.8307509 6.8345482,4.5725609 9.62577042,4.4655309 Z" id="Shape"></path>
                </g>
            </g>
            <g id="Workmark" transform="translate(43.000000, 18.500000)" fill="#3C4043" fill-rule="nonzero">
                <path d="M7.73929412,9.24451765 L3.28432941,9.24451765 L2.21449412,12.4034824 L0.327529412,12.4034824 L4.5472,0.715105882 L6.50767059,0.715105882 L10.7273412,12.4034824 L8.80818824,12.4034824 L7.73929412,9.24451765 Z M3.74569412,7.78672941 L7.27698824,7.78672941 L5.53618824,2.65901176 L5.48743529,2.65901176 L3.74569412,7.78672941 Z" id="Shape"></path>
                <path d="M19.8403765,8.14334118 C19.8403765,10.7913412 18.4230588,12.4926118 16.2843294,12.4926118 C15.0702118,12.4926118 14.1059765,11.9494588 13.6032941,11.0017882 L13.5628235,11.0017882 L13.5628235,15.2224 L11.8137412,15.2224 L11.8137412,3.88235294 L13.5067294,3.88235294 L13.5067294,5.29967059 L13.5389176,5.29967059 C14.0251294,4.38512941 15.0619294,3.79322353 16.2521412,3.79322353 C18.4147765,3.79322353 19.8403765,5.50277647 19.8403765,8.14334118 Z M18.0425412,8.14334118 C18.0425412,6.41816471 17.1509647,5.28395294 15.7906824,5.28395294 C14.4543059,5.28395294 13.5553882,6.44207059 13.5553882,8.14334118 C13.5553882,9.86023529 14.4543059,11.0100706 15.7906824,11.0100706 C17.1510588,11.0100706 18.0425412,9.88423529 18.0425412,8.14334118 Z" id="Shape"></path>
                <path d="M29.2190118,8.14334118 C29.2190118,10.7913412 27.8016941,12.4926118 25.6629647,12.4926118 C24.4488471,12.4926118 23.4847059,11.9494588 22.9819294,11.0017882 L22.9414588,11.0017882 L22.9414588,15.2224 L21.1923765,15.2224 L21.1923765,3.88235294 L22.8853647,3.88235294 L22.8853647,5.29967059 L22.9175529,5.29967059 C23.4037647,4.38512941 24.4405647,3.79322353 25.6307765,3.79322353 C27.7935059,3.79322353 29.2190118,5.50277647 29.2190118,8.14334118 Z M27.4212706,8.14334118 C27.4212706,6.41816471 26.5296941,5.28395294 25.1694118,5.28395294 C23.8330353,5.28395294 22.9341176,6.44207059 22.9341176,8.14334118 C22.9341176,9.86023529 23.8330353,11.0100706 25.1694118,11.0100706 C26.5296941,11.0100706 27.4212706,9.88423529 27.4212706,8.14334118 Z" id="Shape"></path>
                <polygon id="Path" points="30.6353882 0.715105882 32.3854118 0.715105882 32.3854118 12.4034824 30.6353882 12.4034824"></polygon>
                <path d="M41.4920471,9.90070588 C41.2567529,11.4476235 39.7503059,12.5091765 37.8229647,12.5091765 C35.3440941,12.5091765 33.8054588,10.8483765 33.8054588,8.18381176 C33.8054588,5.51105882 35.3523765,3.7776 37.7493647,3.7776 C40.1069176,3.7776 41.5894588,5.39708235 41.5894588,7.98070588 L41.5894588,8.57995294 L35.5711059,8.57995294 L35.5711059,8.68564706 C35.5711059,10.1433412 36.4865882,11.0992941 37.8633412,11.0992941 C38.8348235,11.0992941 39.5968,10.6379294 39.8311529,9.9008 L41.4920471,9.9008 L41.4920471,9.90070588 Z M35.5792941,7.35755294 L39.8394353,7.35755294 C39.7989647,6.05336471 38.9644235,5.19482353 37.7493647,5.19482353 C36.5425882,5.19482353 35.6685176,6.06983529 35.5792941,7.35755294 Z" id="Shape"></path>
                <path d="M50.9056,0.715105882 C53.1730824,0.715105882 54.7530353,2.27849412 54.7530353,4.5552 C54.7530353,6.83924706 53.1408941,8.40997647 50.8486588,8.40997647 L48.3376,8.40997647 L48.3376,12.4035765 L46.5232941,12.4035765 L46.5232941,0.715105882 L50.9056,0.715105882 Z M48.3376,6.88790588 L50.4193882,6.88790588 C51.9984,6.88790588 52.8973176,6.0368 52.8973176,4.56348235 C52.8973176,3.08922353 51.9984,2.24592941 50.4276706,2.24592941 L48.3376,2.24592941 L48.3376,6.88790588 L48.3376,6.88790588 Z" id="Shape"></path>
                <path d="M55.3918118,8.14334118 C55.3918118,5.46230588 56.9708235,3.77750588 59.4331294,3.77750588 C61.9037176,3.77750588 63.4753882,5.46221176 63.4753882,8.14334118 C63.4753882,10.8317176 61.912,12.5091765 59.4331294,12.5091765 C56.9552,12.5091765 55.3918118,10.8318118 55.3918118,8.14334118 Z M61.6932706,8.14334118 C61.6932706,6.30418824 60.8504471,5.21872941 59.4331294,5.21872941 C58.0158118,5.21872941 57.1729882,6.31247059 57.1729882,8.14334118 C57.1729882,9.98983529 58.0158118,11.0670118 59.4331294,11.0670118 C60.8504471,11.0670118 61.6932706,9.98992941 61.6932706,8.14334118 Z" id="Shape"></path>
                <path d="M64.7034353,8.14334118 C64.7034353,5.51096471 66.1528471,3.79312941 68.2668235,3.79312941 C69.4901647,3.79312941 70.4543059,4.36018824 70.9395765,5.29957647 L70.9727059,5.29957647 L70.9727059,0.715011765 L72.7300706,0.715011765 L72.7300706,12.4033882 L71.0288,12.4033882 L71.0288,10.9539765 L70.9966118,10.9539765 C70.4947765,11.9254588 69.5223529,12.4926118 68.2833882,12.4926118 C66.1528471,12.4926118 64.7034353,10.7757176 64.7034353,8.14334118 Z M66.4928941,8.14334118 C66.4928941,9.89242353 67.3844706,11.0100706 68.7447529,11.0100706 C70.0894118,11.0100706 70.9883294,9.87585882 70.9883294,8.14334118 C70.9883294,6.42550588 70.0894118,5.28395294 68.7447529,5.28395294 C67.3844706,5.28404706 66.4928941,6.40988235 66.4928941,8.14334118 Z" id="Shape"></path>
                <path d="M80.1730824,6.81430588 C80.0195765,5.91538824 79.3146353,5.24357647 78.1648,5.24357647 C76.8201412,5.24357647 75.9285647,6.36950588 75.9285647,8.14343529 C75.9285647,9.95774118 76.8284235,11.0506353 78.1804235,11.0506353 C79.2658824,11.0506353 79.9791059,10.5083294 80.1730824,9.52028235 L81.8577882,9.52028235 C81.6638118,11.3098353 80.2300235,12.5092706 78.1648,12.5092706 C75.7346824,12.5092706 74.1472941,10.8484706 74.1472941,8.14343529 C74.1472941,5.49449412 75.7345882,3.7776 78.1482353,3.7776 C80.3347765,3.7776 81.696,5.15444706 81.8421647,6.8144 L80.1730824,6.8144 L80.1730824,6.81430588 Z" id="Path"></path>
                <path d="M82.9295059,9.98164706 C82.9295059,8.49176471 84.0710588,7.59190588 86.0959059,7.47058824 L88.4286118,7.34098824 L88.4286118,6.69298824 C88.4286118,5.74541176 87.8054588,5.21044706 86.7447529,5.21044706 C85.7723294,5.21044706 85.0921412,5.67275294 84.9543529,6.40988235 L83.3183059,6.40988235 C83.3670588,4.8704 84.7999059,3.77750588 86.7925647,3.77750588 C88.8256941,3.77750588 90.1703529,4.88687059 90.1703529,6.56338824 L90.1703529,12.4034824 L88.4939294,12.4034824 L88.4939294,11.0017882 L88.4534588,11.0017882 C87.9589647,11.9493647 86.8817882,12.5495529 85.7641412,12.5495529 C84.0959059,12.5496471 82.9295059,11.5128471 82.9295059,9.98164706 Z M88.4286118,9.21232941 L88.4286118,8.55604706 L86.3312,8.68564706 C85.2861176,8.75087059 84.6951529,9.20404706 84.6951529,9.93289412 C84.6951529,10.6783059 85.3109647,11.1645176 86.2503529,11.1645176 C87.4736,11.1645176 88.4286118,10.3216941 88.4286118,9.21232941 Z" id="Shape"></path>
                <path d="M95.0527059,3.78588235 C96.9406118,3.78588235 98.2926118,4.83002353 98.3330824,6.33647059 L96.6887529,6.33647059 C96.6161882,5.58371765 95.9764706,5.12235294 95.0040471,5.12235294 C94.0564706,5.12235294 93.4250353,5.55896471 93.4250353,6.22343529 C93.4250353,6.73355294 93.8460235,7.0736 94.7292235,7.29232941 L96.1630118,7.62503529 C97.8799059,8.03774118 98.5279059,8.66917647 98.5279059,9.91727059 C98.5279059,11.4559059 97.0702118,12.5091765 94.9884235,12.5091765 C92.9792,12.5091765 91.6272,11.4797176 91.4976,9.92461176 L93.2301176,9.92461176 C93.3523765,10.7425882 94.0077176,11.1801412 95.0692706,11.1801412 C96.1143529,11.1801412 96.7705412,10.7508706 96.7705412,10.0707765 C96.7705412,9.54409412 96.4461176,9.26098824 95.5554824,9.03397647 L94.0324706,8.66174118 C92.4929882,8.28856471 91.7153882,7.50277647 91.7153882,6.32075294 C91.7153882,4.81430588 93.0683294,3.78588235 95.0527059,3.78588235 Z" id="Path"></path>
                <path d="M102.328376,1.86531765 L102.328376,3.88235294 L103.9488,3.88235294 L103.9488,5.26748235 L102.328376,5.26748235 L102.328376,9.96508235 C102.328376,10.6948706 102.6528,11.0349176 103.365176,11.0349176 C103.543529,11.0349176 103.827482,11.0100706 103.940518,10.9944471 L103.940518,12.3712941 C103.746541,12.4200471 103.357835,12.4521412 102.969035,12.4521412 C101.243859,12.4521412 100.571012,11.8041412 100.571012,10.1516235 L100.571012,5.26738824 L99.3320471,5.26738824 L99.3320471,3.88235294 L100.571012,3.88235294 L100.571012,1.86531765 L102.328376,1.86531765 Z" id="Path"></path>
                <path d="M108.651953,3.78588235 C110.539859,3.78588235 111.891859,4.83002353 111.932329,6.33647059 L110.288,6.33647059 C110.215435,5.58371765 109.575718,5.12235294 108.603294,5.12235294 C107.655718,5.12235294 107.024282,5.55896471 107.024282,6.22343529 C107.024282,6.73355294 107.445271,7.0736 108.328471,7.29232941 L109.762259,7.62503529 C111.479153,8.03774118 112.127153,8.66917647 112.127153,9.91727059 C112.127153,11.4559059 110.669459,12.5091765 108.587671,12.5091765 C106.578447,12.5091765 105.226447,11.4797176 105.096847,9.92461176 L106.829365,9.92461176 C106.951624,10.7425882 107.606965,11.1801412 108.668518,11.1801412 C109.7136,11.1801412 110.369788,10.7508706 110.369788,10.0707765 C110.369788,9.54409412 110.045365,9.26098824 109.154729,9.03397647 L107.631718,8.66174118 C106.092235,8.28856471 105.314635,7.50277647 105.314635,6.32075294 C105.314635,4.81430588 106.667576,3.78588235 108.651953,3.78588235 Z" id="Path"></path>
            </g>
            <g id="Group" transform="translate(44.000000, 7.500000)" fill="#5F6368" fill-rule="nonzero">
                <g id="Listen-On" transform="translate(0.236100, 0.280800)">
                    <polygon id="Path" points="3.7217 6.3803 0 6.3803 0 0.4135 0.9263 0.4135 0.9263 5.5282 3.7217 5.5282"></polygon>
                    <path d="M4.7984,0.5459 C4.7984,0.2354 5.0425,-5.55111512e-17 5.3731,-5.55111512e-17 C5.7042,-5.55111512e-17 5.9478,0.2354 5.9478,0.5459 C5.9478,0.8516 5.7041,1.0874 5.3731,1.0874 C5.0425,1.0874 4.7984,0.8515 4.7984,0.5459 Z M4.9307,1.8774 L5.8155,1.8774 L5.8155,6.3803 L4.9307,6.3803 L4.9307,1.8774 Z" id="Shape"></path>
                    <path d="M8.8946,1.7905 C9.9078,1.7905 10.5694,2.2617 10.6558,3.0556 L9.8042,3.0556 C9.7212,2.725 9.3989,2.5141 8.8945,2.5141 C8.3979,2.5141 8.0219,2.7495 8.0219,3.101 C8.0219,3.37 8.2494,3.5395 8.7372,3.6513 L9.4857,3.8246 C10.3417,4.0233 10.7425,4.3915 10.7425,5.0531 C10.7425,5.9008 9.9529,6.4672 8.8778,6.4672 C7.8065,6.4672 7.1078,5.9833 7.0292,5.1855 L7.9184,5.1855 C8.0302,5.5327 8.3608,5.7475 8.8984,5.7475 C9.4526,5.7475 9.8457,5.4995 9.8457,5.1396 C9.8457,4.871 9.6348,4.6972 9.1836,4.5898 L8.398,4.4077 C7.542,4.2051 7.1451,3.8208 7.1451,3.1509 C7.1451,2.3525 7.877,1.7905 8.8946,1.7905 Z" id="Path"></path>
                    <path d="M13.1099,0.7563 L13.1099,1.8979 L14.0855,1.8979 L14.0855,2.6464 L13.1099,2.6464 L13.1099,4.9618 C13.1099,5.4335 13.3042,5.64 13.7466,5.64 C13.8828,5.64 13.9614,5.6317 14.0855,5.6195 L14.0855,6.3597 C13.941,6.3841 13.7754,6.4051 13.6016,6.4051 C12.6133,6.4051 12.2207,6.0574 12.2207,5.1893 L12.2207,2.6463 L11.5054,2.6463 L11.5054,1.8978 L12.2207,1.8978 L12.2207,0.7563 L13.1099,0.7563 Z" id="Path"></path>
                    <path d="M19.0171,5.1645 C18.8145,5.9711 18.0947,6.4672 17.0654,6.4672 C15.7749,6.4672 14.9853,5.5824 14.9853,4.143 C14.9853,2.704 15.7915,1.7905 17.061,1.7905 C18.3139,1.7905 19.0708,2.6465 19.0708,4.0605 L19.0708,4.3706 L15.8906,4.3706 L15.8906,4.4204 C15.9199,5.21 16.3789,5.7104 17.0898,5.7104 C17.6274,5.7104 17.9956,5.5161 18.1611,5.1645 L19.0171,5.1645 Z M15.8907,3.7133 L18.1651,3.7133 C18.1446,3.0063 17.7144,2.5468 17.0572,2.5468 C16.3995,2.5468 15.9405,3.0102 15.8907,3.7133 Z" id="Shape"></path>
                    <path d="M20.2632,1.8774 L21.1192,1.8774 L21.1192,2.5927 L21.1856,2.5927 C21.4044,2.0922 21.8511,1.7905 22.5294,1.7905 C23.5343,1.7905 24.0885,2.394 24.0885,3.4653 L24.0885,6.3803 L23.1993,6.3803 L23.1993,3.6884 C23.1993,2.9648 22.8848,2.6049 22.2276,2.6049 C21.5699,2.6049 21.1524,3.0434 21.1524,3.746 L21.1524,6.3803 L20.2632,6.3803 L20.2632,1.8774 Z" id="Path"></path>
                    <path d="M27.6822,4.1269 C27.6822,2.6752 28.4927,1.7905 29.8077,1.7905 C31.1182,1.7905 31.9288,2.6753 31.9288,4.1269 C31.9288,5.5864 31.1226,6.4672 29.8077,6.4672 C28.4883,6.4672 27.6822,5.5864 27.6822,4.1269 Z M31.0152,4.1269 C31.0152,3.1508 30.5767,2.58 29.8077,2.58 C29.0343,2.58 28.6002,3.1508 28.6002,4.1269 C28.6002,5.1108 29.0343,5.6772 29.8077,5.6772 C30.5767,5.6772 31.0152,5.1069 31.0152,4.1269 Z" id="Shape"></path>
                    <path d="M33.1211,1.8774 L33.9771,1.8774 L33.9771,2.5927 L34.0435,2.5927 C34.2627,2.0922 34.709,1.7905 35.3873,1.7905 C36.3922,1.7905 36.9464,2.394 36.9464,3.4653 L36.9464,6.3803 L36.0572,6.3803 L36.0572,3.6884 C36.0572,2.9648 35.7427,2.6049 35.0855,2.6049 C34.4278,2.6049 34.0103,3.0434 34.0103,3.746 L34.0103,6.3803 L33.1211,6.3803 L33.1211,1.8774 Z" id="Path"></path>
                </g>
            </g>
        </g>
    </g>
</svg>