<?xml version="1.0" encoding="UTF-8"?>
<svg width="167px" height="44px" viewBox="0 0 167 44" version="1.1" xmlns="http://www.w3.org/2000/svg" xmlns:xlink="http://www.w3.org/1999/xlink">
    <title>badges/castro-badge</title>
    <defs>
        <linearGradient x1="0%" y1="0%" x2="0%" y2="100%" id="linearGradient-1">
            <stop stop-color="#00CCBF" offset="0%"></stop>
            <stop stop-color="#00B265" offset="100%"></stop>
        </linearGradient>
        <linearGradient x1="0%" y1="0%" x2="0%" y2="100%" id="linearGradient-2">
            <stop stop-color="#151515" offset="0%"></stop>
            <stop stop-color="#353535" offset="100%"></stop>
        </linearGradient>
    </defs>
    <g id="Page-1" stroke="none" stroke-width="1" fill="none" fill-rule="evenodd">
        <g id="badges/castro-badge" transform="translate(1.000000, 1.000000)" fill-rule="nonzero">
            <g id="Group" fill="#FFFFFF" stroke="#9AA0A6" stroke-width="0.5">
                <g id="Rectangle">
                    <rect x="0" y="0" width="165" height="42" rx="8"></rect>
                </g>
            </g>
            <g id="../icons/castro-icon" transform="translate(7.000000, 7.000000)">
                <path d="M9.76200297,0 L18.237997,0 C21.0489455,0 22.4543104,0 23.9673553,0.478380774 C25.6191703,1.0796175 26.9203825,2.38082961 27.5216739,4.03269935 C28,5.54563494 28,6.95105449 28,9.76200297 L28,18.237997 C28,21.0489455 28,22.4543104 27.5216739,23.9673553 C26.9203825,25.6191704 25.6191703,26.9203825 23.9673553,27.5215646 C22.4543104,28 21.0489455,28 18.237997,28 L9.76200297,28 C6.95105449,28 5.54563494,28 4.03269935,27.5215646 C2.38082961,26.9203825 1.0796175,25.6191704 0.478380774,23.9673553 C0,22.4543104 0,21.0489455 0,18.237997 L0,9.76200297 C0,6.95105449 0,5.54563494 0.478380774,4.03269935 C1.0796175,2.38082961 2.38082961,1.0796175 4.03269935,0.478380774 C5.54563494,0 6.95105449,0 9.76200297,0 L9.76200297,0" id="path-1" fill="url(#linearGradient-1)"></path>
                <path d="M14,2 C20.6274209,2 26,7.37257577 26,13.9999865 C26,20.6274242 20.6274209,26 14,26 C7.37257913,26 2,20.6274242 2,13.9999865 C2,7.37257577 7.37257913,2 14,2 Z" id="path-2" fill="url(#linearGradient-2)"></path>
                <path d="M18.4977936,20.9851905 L16.4922752,18.093015 C17.7518258,17.1344517 18.5700196,15.5862206 18.5700196,13.8390677 C18.5700196,10.9292045 16.3011047,8.57030914 13.5022285,8.57030914 C10.7033793,8.57030914 8.4344644,10.9292045 8.4344644,13.8390677 C8.4344644,15.5938768 9.25985389,17.1480317 10.5287751,18.105589 L8.52175308,21 C6.38826854,19.3945149 5,16.7845294 5,13.8370837 C5,8.95650072 8.80558224,5 13.5,5 C18.1944178,5 22,8.95650072 22,13.8370837 C22,16.775504 20.6201623,19.3784761 18.4977936,20.9851905 Z M13.5188486,11.7045496 C14.6482045,11.7045496 15.5637556,12.6564066 15.5637556,13.8305453 C15.5637556,15.0047118 14.6482045,15.9565409 13.5188486,15.9565409 C12.3894658,15.9565409 11.4739415,15.0047118 11.4739415,13.8305453 C11.4739415,12.6564066 12.3894658,11.7045496 13.5188486,11.7045496 Z" id="path-3" fill="#FFFFFF"></path>
            </g>
            <g id="wordmark" transform="translate(43.000000, 18.000000)" fill="#4A4A4A">
                <path d="M6.92185976,16 C10.3984974,16 12.7651243,14.1220656 13.3410733,10.9242118 L11.0058619,10.9242118 C10.5346308,12.791415 9.03716345,13.8967135 6.93233163,13.8967135 C4.1573046,13.8967135 2.3980421,11.6109992 2.3980421,7.99463444 C2.3980421,4.41046273 4.17824818,2.10328634 6.92185976,2.10328634 C8.97433271,2.10328634 10.5869898,3.40174373 11.0058619,5.38698852 L13.3306016,5.38698852 C12.9326731,2.15694163 10.3461384,0 6.92185976,0 C2.70172442,0 -1.77635684e-14,3.09054325 -1.77635684e-14,7.99463444 C-1.77635684e-14,12.9309188 2.68078084,16 6.92185976,16 Z M19.1738661,14.0040241 C20.8598258,14.0040241 22.1373855,12.8987256 22.1373855,11.364185 L22.1373855,10.4520456 L19.3728302,10.6452045 C17.8230038,10.741784 17.0166752,11.3319919 17.0166752,12.362173 C17.0166752,13.3601609 17.8648909,14.0040241 19.1738661,14.0040241 Z M18.5665016,15.8604962 C16.294121,15.8604962 14.7233509,14.4869214 14.7233509,12.4050972 C14.7233509,10.3661971 16.2627055,9.18578124 19.069148,9.00335343 L22.1373855,8.82092546 L22.1373855,7.91951706 C22.1373855,6.58886645 21.268226,5.85915489 19.7498149,5.85915489 C18.5141426,5.85915489 17.6135678,6.51374907 17.4146036,7.52246806 L15.2888282,7.52246806 C15.3516589,5.4621059 17.2575266,3.93829636 19.8126458,3.93829636 C22.5876729,3.93829636 24.3783506,5.44064381 24.3783506,7.74782021 L24.3783506,15.7424546 L22.2106881,15.7424546 L22.2106881,13.800134 L22.1583291,13.800134 C21.530021,15.0663984 20.116328,15.8604962 18.5665016,15.8604962 Z M26.4727108,7.40442651 C26.4727108,9.01408439 27.4884753,10.0871898 29.5409481,10.6022804 L31.5724774,11.1173709 C32.7662626,11.4285714 33.21655,11.8148892 33.21655,12.5553319 C33.21655,13.4996645 32.326447,14.1006036 30.9127539,14.1006036 C29.4676455,14.1006036 28.5880143,13.4889335 28.4099938,12.372904 L26.1690284,12.372904 C26.3365772,14.4761905 28.1481988,15.8819583 30.7975642,15.8819583 C33.5516476,15.8819583 35.4784588,14.4439972 35.4784588,12.362173 C35.4784588,10.6452045 34.630243,9.79745125 32.3369188,9.22870558 L30.4519947,8.76727016 C29.2477378,8.46680081 28.6822605,7.98390331 28.6822605,7.27565384 C28.6822605,6.35278335 29.5409481,5.74111334 30.8289796,5.74111334 C32.1274827,5.74111334 32.9966422,6.38497656 33.0908884,7.41515764 L35.2271356,7.41515764 C35.1747766,5.38698852 33.3736269,3.94902749 30.8813385,3.94902749 C28.2633885,3.94902749 26.4727108,5.35479547 26.4727108,7.40442651 Z M38.0021627,1.47015424 L38.0021627,4.08853112 L36.4313925,4.08853112 L36.4313925,5.92354114 L38.0021627,5.92354114 L38.0021627,12.6733735 C38.0021627,14.9268946 38.8817938,15.817572 41.1541745,15.817572 C41.6463492,15.817572 42.1804108,15.7639167 42.4317341,15.6995305 L42.4317341,13.8645205 C42.2851289,13.8859825 41.8976723,13.9181756 41.6568209,13.9181756 C40.7038871,13.9181756 40.2640714,13.4460094 40.2640714,12.4372904 L40.2640714,5.92354114 L42.4422058,5.92354114 L42.4422058,4.08853112 L40.2640714,4.08853112 L40.2640714,1.47015424 L38.0021627,1.47015424 Z M44.3585453,15.7424546 L46.6309259,15.7424546 L46.6309259,8.78873242 C46.6309259,7.14688116 47.573388,6.08450703 49.0708553,6.08450703 C49.5211429,6.08450703 49.9190712,6.14889329 50.1075636,6.22401067 L50.1075636,4.04560695 C49.9295431,4.00268278 49.6468043,3.97048957 49.3117067,3.97048957 C47.9713163,3.97048957 46.9241363,4.75385642 46.5680952,6.05231382 L46.526208,6.05231382 L46.526208,4.08853112 L44.3585453,4.08853112 L44.3585453,15.7424546 Z M55.9613,15.8819583 C52.6731546,15.8819583 50.5787945,13.585513 50.5787945,9.91549297 C50.5787945,6.25620388 52.6836265,3.93829636 55.9613,3.93829636 C59.2389734,3.93829636 61.3333333,6.24547275 61.3333333,9.91549297 C61.3333333,13.585513 59.2494451,15.8819583 55.9613,15.8819583 Z M55.9613,13.9503688 C57.8881111,13.9503688 59.0295373,12.4587525 59.0295373,9.91549297 C59.0295373,7.3722333 57.8881111,5.86988585 55.9613,5.86988585 C54.0344886,5.86988585 52.8825906,7.38296443 52.8825906,9.91549297 C52.8825906,12.4587525 54.0344886,13.9503688 55.9613,13.9503688 Z" id="Castro"></path>
            </g>
            <g id="Group" transform="translate(44.000000, 7.832031)" fill="#5F6368">
                <g id="Listen-On" transform="translate(0.236100, 0.280800)">
                    <polygon id="Path" points="3.7217 6.3803 0 6.3803 0 0.4135 0.9263 0.4135 0.9263 5.5282 3.7217 5.5282"></polygon>
                    <path d="M4.7984,0.5459 C4.7984,0.2354 5.0425,-5.55111512e-17 5.3731,-5.55111512e-17 C5.7042,-5.55111512e-17 5.9478,0.2354 5.9478,0.5459 C5.9478,0.8516 5.7041,1.0874 5.3731,1.0874 C5.0425,1.0874 4.7984,0.8515 4.7984,0.5459 Z M4.9307,1.8774 L5.8155,1.8774 L5.8155,6.3803 L4.9307,6.3803 L4.9307,1.8774 Z" id="Shape"></path>
                    <path d="M8.8946,1.7905 C9.9078,1.7905 10.5694,2.2617 10.6558,3.0556 L9.8042,3.0556 C9.7212,2.725 9.3989,2.5141 8.8945,2.5141 C8.3979,2.5141 8.0219,2.7495 8.0219,3.101 C8.0219,3.37 8.2494,3.5395 8.7372,3.6513 L9.4857,3.8246 C10.3417,4.0233 10.7425,4.3915 10.7425,5.0531 C10.7425,5.9008 9.9529,6.4672 8.8778,6.4672 C7.8065,6.4672 7.1078,5.9833 7.0292,5.1855 L7.9184,5.1855 C8.0302,5.5327 8.3608,5.7475 8.8984,5.7475 C9.4526,5.7475 9.8457,5.4995 9.8457,5.1396 C9.8457,4.871 9.6348,4.6972 9.1836,4.5898 L8.398,4.4077 C7.542,4.2051 7.1451,3.8208 7.1451,3.1509 C7.1451,2.3525 7.877,1.7905 8.8946,1.7905 Z" id="Path"></path>
                    <path d="M13.1099,0.7563 L13.1099,1.8979 L14.0855,1.8979 L14.0855,2.6464 L13.1099,2.6464 L13.1099,4.9618 C13.1099,5.4335 13.3042,5.64 13.7466,5.64 C13.8828,5.64 13.9614,5.6317 14.0855,5.6195 L14.0855,6.3597 C13.941,6.3841 13.7754,6.4051 13.6016,6.4051 C12.6133,6.4051 12.2207,6.0574 12.2207,5.1893 L12.2207,2.6463 L11.5054,2.6463 L11.5054,1.8978 L12.2207,1.8978 L12.2207,0.7563 L13.1099,0.7563 Z" id="Path"></path>
                    <path d="M19.0171,5.1645 C18.8145,5.9711 18.0947,6.4672 17.0654,6.4672 C15.7749,6.4672 14.9853,5.5824 14.9853,4.143 C14.9853,2.704 15.7915,1.7905 17.061,1.7905 C18.3139,1.7905 19.0708,2.6465 19.0708,4.0605 L19.0708,4.3706 L15.8906,4.3706 L15.8906,4.4204 C15.9199,5.21 16.3789,5.7104 17.0898,5.7104 C17.6274,5.7104 17.9956,5.5161 18.1611,5.1645 L19.0171,5.1645 Z M15.8907,3.7133 L18.1651,3.7133 C18.1446,3.0063 17.7144,2.5468 17.0572,2.5468 C16.3995,2.5468 15.9405,3.0102 15.8907,3.7133 Z" id="Shape"></path>
                    <path d="M20.2632,1.8774 L21.1192,1.8774 L21.1192,2.5927 L21.1856,2.5927 C21.4044,2.0922 21.8511,1.7905 22.5294,1.7905 C23.5343,1.7905 24.0885,2.394 24.0885,3.4653 L24.0885,6.3803 L23.1993,6.3803 L23.1993,3.6884 C23.1993,2.9648 22.8848,2.6049 22.2276,2.6049 C21.5699,2.6049 21.1524,3.0434 21.1524,3.746 L21.1524,6.3803 L20.2632,6.3803 L20.2632,1.8774 Z" id="Path"></path>
                    <path d="M27.6822,4.1269 C27.6822,2.6752 28.4927,1.7905 29.8077,1.7905 C31.1182,1.7905 31.9288,2.6753 31.9288,4.1269 C31.9288,5.5864 31.1226,6.4672 29.8077,6.4672 C28.4883,6.4672 27.6822,5.5864 27.6822,4.1269 Z M31.0152,4.1269 C31.0152,3.1508 30.5767,2.58 29.8077,2.58 C29.0343,2.58 28.6002,3.1508 28.6002,4.1269 C28.6002,5.1108 29.0343,5.6772 29.8077,5.6772 C30.5767,5.6772 31.0152,5.1069 31.0152,4.1269 Z" id="Shape"></path>
                    <path d="M33.1211,1.8774 L33.9771,1.8774 L33.9771,2.5927 L34.0435,2.5927 C34.2627,2.0922 34.709,1.7905 35.3873,1.7905 C36.3922,1.7905 36.9464,2.394 36.9464,3.4653 L36.9464,6.3803 L36.0572,6.3803 L36.0572,3.6884 C36.0572,2.9648 35.7427,2.6049 35.0855,2.6049 C34.4278,2.6049 34.0103,3.0434 34.0103,3.746 L34.0103,6.3803 L33.1211,6.3803 L33.1211,1.8774 Z" id="Path"></path>
                </g>
            </g>
        </g>
    </g>
</svg>