<?xml version="1.0" encoding="UTF-8"?>
<svg width="167px" height="44px" viewBox="0 0 167 44" version="1.1" xmlns="http://www.w3.org/2000/svg" xmlns:xlink="http://www.w3.org/1999/xlink">
    <title>badges/pocketcasts-badge</title>
    <defs>
        <polygon id="path-1" points="0 0.79651282 9.26754394 0.79651282 9.26754394 14.8414132 0 14.8414132"></polygon>
    </defs>
    <g id="Page-1" stroke="none" stroke-width="1" fill="none" fill-rule="evenodd">
        <g id="badges/pocketcasts-badge" transform="translate(1.000000, 1.000000)">
            <g id="Group" fill="#FFFFFF" fill-rule="nonzero" stroke="#9AA0A6" stroke-width="0.5">
                <g id="Rectangle">
                    <rect x="0" y="0" width="165" height="42" rx="8"></rect>
                </g>
            </g>
            <g id="../icons/pocketcasts-icon" transform="translate(7.000000, 7.000000)" fill-rule="nonzero">
                <g id="Group">
                    <path d="M28,14 C28,21.7321482 21.7321482,28 14,28 C6.26785185,28 0,21.7321482 0,14 C0,6.26785185 6.26785185,0 14,0 C21.7321482,0 28,6.26785185 28,14" id="Fill-23" fill="#F43E37"></path>
                    <g id="Glyph" transform="translate(3.111111, 3.111111)" fill="#FFFFFF">
                        <path d="M0,10.7692308 C0,4.82154885 4.82154885,0 10.7692308,0 C16.7169127,0 21.5384615,4.82154885 21.5384615,10.7692308 L18.8461538,10.7692308 C18.8461538,6.30846933 15.2299922,2.69230769 10.7692308,2.69230769 C6.30846933,2.69230769 2.69230769,6.30846933 2.69230769,10.7692308 C2.69230769,15.2299922 6.30846933,18.8461538 10.7692308,18.8461538 L10.7692308,21.5384615 C4.82154885,21.5384615 0,16.7169127 0,10.7692308 Z M10.7692308,17.2307692 C7.20062162,17.2307692 4.30769231,14.3378399 4.30769231,10.7692308 C4.30769231,7.20062162 7.20062162,4.30769231 10.7692308,4.30769231 C14.3378399,4.30769231 17.2307692,7.20062162 17.2307692,10.7692308 L14.8811189,10.7692308 C14.8811189,8.49829767 13.0401639,6.65734266 10.7692308,6.65734266 C8.49829767,6.65734266 6.65734266,8.49829767 6.65734266,10.7692308 C6.65734266,13.0401639 8.49829767,14.8811189 10.7692308,14.8811189 L10.7692308,17.2307692 Z" id="Path"></path>
                    </g>
                </g>
            </g>
            <g id="Group" transform="translate(44.000000, 8.000000)" fill="#5F6368" fill-rule="nonzero">
                <g id="Listen-On" transform="translate(0.236100, 0.280800)">
                    <polygon id="Path" points="3.7217 6.3803 0 6.3803 0 0.4135 0.9263 0.4135 0.9263 5.5282 3.7217 5.5282"></polygon>
                    <path d="M4.7984,0.5459 C4.7984,0.2354 5.0425,-5.55111512e-17 5.3731,-5.55111512e-17 C5.7042,-5.55111512e-17 5.9478,0.2354 5.9478,0.5459 C5.9478,0.8516 5.7041,1.0874 5.3731,1.0874 C5.0425,1.0874 4.7984,0.8515 4.7984,0.5459 Z M4.9307,1.8774 L5.8155,1.8774 L5.8155,6.3803 L4.9307,6.3803 L4.9307,1.8774 Z" id="Shape"></path>
                    <path d="M8.8946,1.7905 C9.9078,1.7905 10.5694,2.2617 10.6558,3.0556 L9.8042,3.0556 C9.7212,2.725 9.3989,2.5141 8.8945,2.5141 C8.3979,2.5141 8.0219,2.7495 8.0219,3.101 C8.0219,3.37 8.2494,3.5395 8.7372,3.6513 L9.4857,3.8246 C10.3417,4.0233 10.7425,4.3915 10.7425,5.0531 C10.7425,5.9008 9.9529,6.4672 8.8778,6.4672 C7.8065,6.4672 7.1078,5.9833 7.0292,5.1855 L7.9184,5.1855 C8.0302,5.5327 8.3608,5.7475 8.8984,5.7475 C9.4526,5.7475 9.8457,5.4995 9.8457,5.1396 C9.8457,4.871 9.6348,4.6972 9.1836,4.5898 L8.398,4.4077 C7.542,4.2051 7.1451,3.8208 7.1451,3.1509 C7.1451,2.3525 7.877,1.7905 8.8946,1.7905 Z" id="Path"></path>
                    <path d="M13.1099,0.7563 L13.1099,1.8979 L14.0855,1.8979 L14.0855,2.6464 L13.1099,2.6464 L13.1099,4.9618 C13.1099,5.4335 13.3042,5.64 13.7466,5.64 C13.8828,5.64 13.9614,5.6317 14.0855,5.6195 L14.0855,6.3597 C13.941,6.3841 13.7754,6.4051 13.6016,6.4051 C12.6133,6.4051 12.2207,6.0574 12.2207,5.1893 L12.2207,2.6463 L11.5054,2.6463 L11.5054,1.8978 L12.2207,1.8978 L12.2207,0.7563 L13.1099,0.7563 Z" id="Path"></path>
                    <path d="M19.0171,5.1645 C18.8145,5.9711 18.0947,6.4672 17.0654,6.4672 C15.7749,6.4672 14.9853,5.5824 14.9853,4.143 C14.9853,2.704 15.7915,1.7905 17.061,1.7905 C18.3139,1.7905 19.0708,2.6465 19.0708,4.0605 L19.0708,4.3706 L15.8906,4.3706 L15.8906,4.4204 C15.9199,5.21 16.3789,5.7104 17.0898,5.7104 C17.6274,5.7104 17.9956,5.5161 18.1611,5.1645 L19.0171,5.1645 Z M15.8907,3.7133 L18.1651,3.7133 C18.1446,3.0063 17.7144,2.5468 17.0572,2.5468 C16.3995,2.5468 15.9405,3.0102 15.8907,3.7133 Z" id="Shape"></path>
                    <path d="M20.2632,1.8774 L21.1192,1.8774 L21.1192,2.5927 L21.1856,2.5927 C21.4044,2.0922 21.8511,1.7905 22.5294,1.7905 C23.5343,1.7905 24.0885,2.394 24.0885,3.4653 L24.0885,6.3803 L23.1993,6.3803 L23.1993,3.6884 C23.1993,2.9648 22.8848,2.6049 22.2276,2.6049 C21.5699,2.6049 21.1524,3.0434 21.1524,3.746 L21.1524,6.3803 L20.2632,6.3803 L20.2632,1.8774 Z" id="Path"></path>
                    <path d="M27.6822,4.1269 C27.6822,2.6752 28.4927,1.7905 29.8077,1.7905 C31.1182,1.7905 31.9288,2.6753 31.9288,4.1269 C31.9288,5.5864 31.1226,6.4672 29.8077,6.4672 C28.4883,6.4672 27.6822,5.5864 27.6822,4.1269 Z M31.0152,4.1269 C31.0152,3.1508 30.5767,2.58 29.8077,2.58 C29.0343,2.58 28.6002,3.1508 28.6002,4.1269 C28.6002,5.1108 29.0343,5.6772 29.8077,5.6772 C30.5767,5.6772 31.0152,5.1069 31.0152,4.1269 Z" id="Shape"></path>
                    <path d="M33.1211,1.8774 L33.9771,1.8774 L33.9771,2.5927 L34.0435,2.5927 C34.2627,2.0922 34.709,1.7905 35.3873,1.7905 C36.3922,1.7905 36.9464,2.394 36.9464,3.4653 L36.9464,6.3803 L36.0572,6.3803 L36.0572,3.6884 C36.0572,2.9648 35.7427,2.6049 35.0855,2.6049 C34.4278,2.6049 34.0103,3.0434 34.0103,3.746 L34.0103,6.3803 L33.1211,6.3803 L33.1211,1.8774 Z" id="Path"></path>
                </g>
            </g>
            <g id="wordmark" transform="translate(43.000000, 18.000000)">
                <g id="Fill-1-Clipped" transform="translate(0.000000, 0.877744)">
                    <mask id="mask-2" fill="white">
                        <use xlink:href="#path-1"></use>
                    </mask>
                    <g id="path-1"></g>
                    <path d="M3.8456703,8.28152706 C5.36026725,8.28152706 6.11692665,7.47799431 6.11692665,5.773151 C6.11692665,4.02694017 5.36026725,3.36505983 3.88657081,3.36505983 L3.15036166,3.36505983 L3.15036166,8.28152706 L3.8456703,8.28152706 Z M-0.000255628177,14.8414132 L-0.000255628177,0.79651282 L3.88657081,0.79651282 C7.38612055,0.79651282 9.26754394,2.4211282 9.26754394,5.67286609 C9.26754394,9.30317949 7.03718809,10.8099601 3.96964996,10.8099601 L3.17081191,10.8099601 L3.17081191,14.8414132 L-0.000255628177,14.8414132 Z" id="Fill-1" fill="#3C4043" fill-rule="nonzero" mask="url(#mask-2)"></path>
                </g>
                <path d="M14.0508584,7.57401709 C13.1293188,7.57401709 12.5567117,8.53675214 12.5567117,10.5035897 C12.5567117,12.4892307 13.1510472,13.4720228 14.0917589,13.4720228 C15.0120203,13.4720228 15.6050777,12.4892307 15.6050777,10.5236467 C15.6050777,8.53675214 14.9915701,7.57401709 14.0508584,7.57401709 M14.0713087,15.920228 C11.6569005,15.920228 9.73329847,14.0950428 9.73329847,10.5424501 C9.73329847,6.95225071 11.6773508,5.10575498 14.0917589,5.10575498 C16.4844386,5.10575498 18.4284909,6.95225071 18.4284909,10.5035897 C18.4284909,14.0749857 16.4844386,15.920228 14.0713087,15.920228" id="Fill-4" fill="#3C4043" fill-rule="nonzero"></path>
                <path d="M23.9064749,15.880114 C21.0626115,15.880114 19.3856906,13.9333333 19.3856906,10.5424501 C19.3856906,7.23304844 21.1047902,5.14586894 24.0700769,5.14586894 C25.0107887,5.14586894 25.7278257,5.32638177 26.4231344,5.58712251 L25.9732288,8.11555556 C25.4811445,7.89492878 24.9085374,7.71316239 24.31548,7.71316239 C22.945313,7.71316239 22.2295541,8.8777208 22.2295541,10.5035897 C22.2295541,12.268604 22.945313,13.3115669 24.3576586,13.3115669 C24.8893653,13.3115669 25.4415222,13.1511111 26.0345795,12.9304844 L26.4857632,15.3586325 C25.7687262,15.6594872 24.8280146,15.880114 23.9064749,15.880114" id="Fill-6" fill="#3C4043" fill-rule="nonzero"></path>
                <polygon id="Fill-8" fill="#3C4043" fill-rule="nonzero" points="30.6554423 10.743396 30.6554423 15.7200342 27.6901554 15.7200342 27.6901554 1.25393732 30.6554423 1.25393732 30.6554423 9.82077493 33.0698504 5.32675783 36.322719 5.32675783 33.4379549 10.3021425 36.40452 15.7200342 33.1107509 15.7200342"></polygon>
                <path d="M42.0463617,9.82039886 C41.9850109,8.25595442 41.5146551,7.33333333 40.6148438,7.33333333 C39.6933043,7.33333333 39.2229484,8.29606838 39.1615976,9.82039886 L42.0463617,9.82039886 Z M36.3995353,10.5637607 C36.3995353,6.99111111 38.2617865,5.10575498 40.6148438,5.10575498 C43.111053,5.10575498 44.789252,6.97230769 44.789252,10.6239316 L44.789252,11.5666097 L39.1615976,11.5666097 C39.263849,12.9906553 40.0614089,13.6939032 41.3715033,13.6939032 C42.1486129,13.6939032 43.0701525,13.4519658 43.9086129,13.0721368 L44.4403196,15.1192023 C43.4165287,15.6193732 42.2099637,15.880114 41.0634713,15.880114 C38.4662891,15.880114 36.3995353,14.5362963 36.3995353,10.5637607 Z" id="Fill-10" fill="#3C4043" fill-rule="nonzero"></path>
                <path d="M46.7894146,12.6103248 L46.7894146,7.71391453 L45.6442004,7.71391453 L45.6442004,5.32588034 L46.7894146,5.32588034 L46.7894146,2.59813106 L49.7355294,2.59813106 L49.7355294,5.32588034 L51.9850573,5.32588034 L51.9850573,7.71391453 L49.7355294,7.71391453 L49.7355294,12.1878746 C49.7355294,13.0515783 50.2058852,13.412604 51.0034451,13.412604 C51.3510995,13.412604 51.6591314,13.3524331 51.9850573,13.2722051 L51.9850573,15.6401823 C51.5351518,15.7793276 50.9011939,15.8608091 50.1649847,15.8608091 C47.9141786,15.8608091 46.7894146,14.9569915 46.7894146,12.6103248" id="Fill-12" fill="#3C4043" fill-rule="nonzero"></path>
                <path d="M62.1496006,15.880114 C58.425098,15.880114 56.0937691,13.5535043 56.0937691,8.71726495 C56.0937691,4.06153846 58.487727,1.51430199 62.1700508,1.51430199 C63.397066,1.51430199 64.4195788,1.75373219 65.2171387,2.05584045 L64.7276107,4.90518519 C64.0936529,4.64444444 63.3561656,4.40376069 62.4768046,4.40376069 C60.5123021,4.40376069 59.3466377,5.92934473 59.3466377,8.677151 C59.3466377,11.5064387 60.4509514,12.9906553 62.5381554,12.9906553 C63.3357153,12.9906553 64.0936529,12.7900855 64.7467828,12.5105413 L65.2593174,15.2796582 C64.3786782,15.6406838 63.2948148,15.880114 62.1496006,15.880114" id="Fill-14" fill="#3C4043" fill-rule="nonzero"></path>
                <path d="M71.4124154,13.5125128 L71.4124154,11.0442507 C71.1261118,10.9840798 70.8001859,10.9652764 70.4512534,10.9652764 C69.8377458,10.9652764 69.4900915,11.0843646 69.2446885,11.3049915 C69.0197357,11.5469288 68.895756,11.9079544 68.895756,12.4294359 C68.895756,13.4723989 69.3661118,13.894849 70.1854002,13.894849 C70.5944052,13.894849 71.0238606,13.7343931 71.4124154,13.5125128 M68.9583849,15.8604331 C67.3006362,15.8604331 66.1349717,14.8174701 66.1349717,12.5698347 C66.1349717,11.5657322 66.4212752,10.723339 66.9734321,10.2018575 C67.5664895,9.60014815 68.4471285,9.29929344 69.776395,9.29929344 C70.3490022,9.29929344 70.9216093,9.37952137 71.4124154,9.47980627 L71.4124154,8.89690029 C71.4124154,8.01439317 71.0046885,7.53302564 69.8978185,7.53302564 C69.0401859,7.53302564 68.1186464,7.77496296 67.3006362,8.11467807 L66.7484793,5.90841026 C67.8131706,5.48721368 69.059358,5.16630199 70.4308032,5.16630199 C73.1110647,5.16630199 74.3176296,6.28949288 74.3176296,8.67752706 L74.3176296,13.8735384 L74.5425824,15.7200342 L71.9658504,15.7200342 L71.5977458,14.8174701 C70.819358,15.4793505 70.0626987,15.8604331 68.9583849,15.8604331" id="Fill-16" fill="#3C4043" fill-rule="nonzero"></path>
                <path d="M79.5293769,15.9009231 C78.0978591,15.9009231 76.7685926,15.5398974 75.6221002,14.9369344 L76.2151576,12.5890143 C77.3411997,13.1919772 78.4659637,13.5530029 79.4897545,13.5530029 C80.2464139,13.5530029 80.655419,13.2320912 80.655419,12.7908376 C80.655419,12.3495841 80.4087379,12.1490143 78.97722,11.5874188 C76.9935454,10.8051966 76.0106551,10.0618348 76.0106551,8.31562394 C76.0106551,6.39015384 77.3616499,5.14536752 79.7338795,5.14536752 C80.9404444,5.14536752 82.0473144,5.42741881 83.0493769,5.90753276 L82.4550414,8.25545299 C81.53478,7.79414245 80.5940682,7.49328775 79.7338795,7.49328775 C79.0999216,7.49328775 78.7535454,7.75402849 78.7535454,8.17522507 C78.7535454,8.57636468 78.97722,8.77693447 80.3895658,9.33978347 C82.6186434,10.2022336 83.3957531,11.0045128 83.3957531,12.6491852 C83.3957531,14.8178461 81.8428119,15.9009231 79.5293769,15.9009231" id="Fill-18" fill="#3C4043" fill-rule="nonzero"></path>
                <path d="M85.3983442,12.6103248 L85.3983442,7.71391453 L84.25313,7.71391453 L84.25313,5.32588034 L85.3983442,5.32588034 L85.3983442,2.59813106 L88.344459,2.59813106 L88.344459,5.32588034 L90.5939869,5.32588034 L90.5939869,7.71391453 L88.344459,7.71391453 L88.344459,12.1878746 C88.344459,13.0515783 88.8148148,13.412604 89.6123747,13.412604 C89.960029,13.412604 90.268061,13.3524331 90.5939869,13.2722051 L90.5939869,15.6401823 C90.1440813,15.7793276 89.5101235,15.8608091 88.7739143,15.8608091 C86.5231082,15.8608091 85.3983442,14.9569915 85.3983442,12.6103248" id="Fill-20" fill="#3C4043" fill-rule="nonzero"></path>
                <path d="M95.7057836,15.9009231 C94.2742658,15.9009231 92.9449993,15.5398974 91.7985069,14.9369344 L92.3915643,12.5890143 C93.5176064,13.1919772 94.6423704,13.5530029 95.6661612,13.5530029 C96.4228207,13.5530029 96.8318257,13.2320912 96.8318257,12.7908376 C96.8318257,12.3495841 96.5851445,12.1490143 95.1536268,11.5874188 C93.1699521,10.8051966 92.1870617,10.0618348 92.1870617,8.31562394 C92.1870617,6.39015384 93.5380566,5.14536752 95.9102861,5.14536752 C97.1168512,5.14536752 98.2237211,5.42741881 99.2257836,5.90753276 L98.6314481,8.25545299 C97.7111867,7.79414245 96.7704749,7.49328775 95.9102861,7.49328775 C95.2763283,7.49328775 94.9299521,7.75402849 94.9299521,8.17522507 C94.9299521,8.57636468 95.1536268,8.77693447 96.5659724,9.33978347 C98.7950501,10.2022336 99.5721597,11.0045128 99.5721597,12.6491852 C99.5721597,14.8178461 98.0192186,15.9009231 95.7057836,15.9009231" id="Fill-22" fill="#3C4043" fill-rule="nonzero"></path>
            </g>
        </g>
    </g>
</svg>